<?xml version="1.0" encoding="iso-8859-1"?>
<!-- Generator: Adobe Illustrator 19.0.0, SVG Export Plug-In . SVG Version: 6.00 Build 0)  -->
<svg version="1.1" id="Layer_1" xmlns="http://www.w3.org/2000/svg" xmlns:xlink="http://www.w3.org/1999/xlink" x="0px" y="0px"
	 viewBox="0 0 512 512" style="enable-background:new 0 0 512 512;" xml:space="preserve">
<g>
	<g>
		<g>
			<path d="M320.873,307.654c-29.117-2.789-55.54,7.304-71.656,28.413c-12.792,16.756-33.853,25.084-56.039,21.831
				c-22.674-3.326-41.393-17.476-48.661-36.733c-1.664-4.409-6.588-6.635-10.997-4.97c-4.409,1.664-6.635,6.588-4.97,10.997
				c9.532,25.255,33.527,43.394,62.152,47.593c28.26,4.143,55.485-6.622,72.081-28.361c12.339-16.163,32.944-24.033,56.463-21.78
				c21.783,2.085,40.71,16.739,48.237,36.682c1.664,4.409,6.588,6.635,10.997,4.97c4.409-1.664,6.635-6.588,4.97-10.997
				C373.639,329.303,349.176,310.363,320.873,307.654z"/>
			<path d="M179.2,221.867c20.012,0,34.133-23.538,34.133-51.2c0-27.662-14.121-51.2-34.133-51.2s-34.133,23.538-34.133,51.2
				C145.067,198.329,159.188,221.867,179.2,221.867z M179.2,136.533c8.265,0,17.067,14.67,17.067,34.133
				c0,19.463-8.801,34.133-17.067,34.133s-17.067-14.67-17.067-34.133C162.133,151.204,170.935,136.533,179.2,136.533z"/>
			<path d="M332.8,221.867c20.012,0,34.133-23.538,34.133-51.2c0-27.662-14.121-51.2-34.133-51.2
				c-20.012,0-34.133,23.538-34.133,51.2C298.667,198.329,312.788,221.867,332.8,221.867z M332.8,136.533
				c8.265,0,17.067,14.67,17.067,34.133c0,19.463-8.801,34.133-17.067,34.133c-8.265,0-17.067-14.67-17.067-34.133
				C315.733,151.204,324.535,136.533,332.8,136.533z"/>
			<path d="M460.818,283.146l-18.235-31.425c-3.288-5.666-11.47-5.666-14.76-0.001l-18.116,31.198
				c-11.697,18.668-11.709,40.786,0.934,55.36c13.403,15.451,35.712,15.451,49.116,0
				C472.352,323.757,472.342,304.477,460.818,283.146z M446.864,327.093c-6.599,7.607-16.734,7.607-23.332,0
				c-7.335-8.455-7.328-22.406,0.786-35.362l10.881-18.733l10.73,18.487C454.238,306.873,454.245,318.585,446.864,327.093z"/>
			<path d="M256,0c-55.393,0-108.092,17.701-151.682,49.848L92.716,29.854c-3.288-5.666-11.47-5.666-14.76-0.002L59.84,61.05
				c-8.006,12.778-10.535,27.17-7.282,39.655C18.693,144.991,0,199.076,0,256c0,141.383,114.617,256,256,256s256-114.617,256-256
				S397.383,0,256,0z M74.452,69.865l10.881-18.733l10.7,18.434l0.023,0.04c1.479,2.738,2.683,5.354,3.642,7.862
				c0.052,0.137,0.117,0.279,0.167,0.416c0.175,0.469,0.317,0.923,0.474,1.384c0.137,0.402,0.29,0.812,0.413,1.208
				c0.048,0.156,0.082,0.305,0.128,0.46c0.961,3.22,1.478,6.244,1.534,9.066c0.117,5.913-1.728,10.966-5.419,15.22
				c-1.898,2.19-4.092,3.729-6.405,4.659c-3.197,1.283-6.627,1.384-9.855,0.266c-2.556-0.887-4.984-2.526-7.061-4.923
				c-1.448-1.666-2.635-3.69-3.596-6.107c-0.114-0.287-0.253-0.553-0.391-0.819C66.81,90.149,68.278,79.722,74.452,69.865z
				 M256,494.933C124.043,494.933,17.067,387.957,17.067,256c0-50.516,15.754-98.608,44.47-138.748
				c0.039,0.043,0.081,0.082,0.121,0.124c0.317,0.341,0.64,0.672,0.966,0.996c0.119,0.119,0.238,0.237,0.358,0.353
				c0.309,0.299,0.622,0.589,0.938,0.873c0.144,0.13,0.289,0.259,0.435,0.386c0.299,0.26,0.602,0.513,0.907,0.76
				c0.17,0.138,0.34,0.274,0.511,0.407c0.289,0.225,0.58,0.444,0.873,0.657c0.194,0.142,0.39,0.281,0.586,0.418
				c0.277,0.193,0.557,0.381,0.838,0.565c0.219,0.143,0.438,0.282,0.659,0.419c0.266,0.165,0.533,0.325,0.802,0.481
				c0.242,0.141,0.485,0.277,0.73,0.411c0.254,0.139,0.508,0.274,0.764,0.406c0.265,0.136,0.531,0.267,0.798,0.395
				c0.241,0.115,0.482,0.228,0.725,0.337c0.287,0.129,0.575,0.252,0.865,0.371c0.229,0.094,0.458,0.188,0.688,0.276
				c0.307,0.119,0.615,0.23,0.924,0.339c0.218,0.076,0.435,0.152,0.654,0.223c0.324,0.106,0.649,0.204,0.975,0.299
				c0.208,0.06,0.416,0.121,0.625,0.177c0.34,0.091,0.681,0.174,1.023,0.254c0.198,0.046,0.396,0.093,0.595,0.135
				c0.353,0.075,0.707,0.141,1.062,0.203c0.191,0.034,0.382,0.068,0.573,0.098c0.364,0.057,0.729,0.105,1.095,0.149
				c0.183,0.022,0.367,0.046,0.55,0.065c0.373,0.038,0.746,0.066,1.12,0.091c0.179,0.012,0.357,0.025,0.536,0.034
				c0.378,0.018,0.756,0.026,1.134,0.031c0.175,0.002,0.351,0.006,0.526,0.005c0.38-0.002,0.76-0.015,1.14-0.031
				c0.174-0.007,0.349-0.012,0.523-0.022c0.38-0.022,0.758-0.056,1.137-0.092c0.175-0.017,0.349-0.031,0.523-0.05
				c0.375-0.043,0.75-0.097,1.124-0.153c0.178-0.027,0.356-0.05,0.533-0.08c0.368-0.062,0.734-0.135,1.1-0.211
				c0.183-0.038,0.366-0.071,0.548-0.112c0.356-0.08,0.709-0.171,1.063-0.264c0.191-0.05,0.383-0.096,0.573-0.15
				c0.34-0.096,0.677-0.203,1.014-0.311c0.202-0.064,0.405-0.124,0.606-0.193c0.32-0.109,0.638-0.23,0.956-0.35
				c0.215-0.081,0.431-0.157,0.644-0.243c0.298-0.12,0.592-0.251,0.887-0.381c0.231-0.101,0.462-0.197,0.691-0.304
				c0.267-0.125,0.531-0.261,0.796-0.394c0.253-0.126,0.507-0.248,0.757-0.382c0.231-0.123,0.459-0.258,0.688-0.388
				c0.279-0.157,0.559-0.311,0.834-0.477c0.188-0.114,0.373-0.238,0.56-0.356c0.311-0.197,0.623-0.391,0.929-0.599
				c0.133-0.09,0.263-0.189,0.395-0.282c0.355-0.249,0.709-0.498,1.057-0.763c0.059-0.045,0.117-0.095,0.176-0.14
				c1.819-1.402,3.544-3.016,5.141-4.856c1.075-1.239,2.05-2.515,2.942-3.821c0.041-0.06,0.084-0.119,0.125-0.179
				c0.239-0.354,0.467-0.712,0.692-1.07c0.073-0.115,0.148-0.23,0.219-0.346c0.202-0.329,0.394-0.661,0.585-0.994
				c0.086-0.149,0.173-0.298,0.257-0.447c0.174-0.314,0.341-0.63,0.505-0.947c0.09-0.173,0.181-0.346,0.268-0.519
				c0.151-0.302,0.295-0.607,0.438-0.912c0.09-0.193,0.181-0.387,0.268-0.582c0.131-0.294,0.256-0.589,0.379-0.885
				c0.087-0.21,0.173-0.419,0.256-0.63c0.113-0.287,0.222-0.576,0.328-0.865c0.082-0.225,0.162-0.451,0.24-0.678
				c0.096-0.28,0.19-0.562,0.279-0.844c0.076-0.24,0.149-0.482,0.22-0.724c0.081-0.274,0.16-0.549,0.234-0.825
				c0.069-0.255,0.133-0.512,0.197-0.77c0.066-0.267,0.132-0.534,0.192-0.802c0.061-0.273,0.117-0.548,0.172-0.823
				c0.052-0.257,0.104-0.514,0.151-0.773c0.053-0.293,0.098-0.588,0.144-0.883c0.038-0.245,0.079-0.49,0.112-0.737
				c0.043-0.317,0.078-0.637,0.114-0.957c0.025-0.228,0.054-0.455,0.076-0.684c0.034-0.358,0.058-0.719,0.082-1.08
				c0.013-0.194,0.031-0.387,0.041-0.581c0.024-0.442,0.036-0.888,0.046-1.334c0.003-0.117,0.009-0.232,0.011-0.349
				c0.016-1.147-0.015-2.308-0.091-3.48c-0.005-0.073-0.013-0.147-0.018-0.22c-0.035-0.507-0.077-1.016-0.129-1.528
				c-0.015-0.148-0.036-0.297-0.052-0.445c-0.049-0.44-0.1-0.881-0.162-1.325c-0.025-0.177-0.055-0.355-0.081-0.533
				c-0.062-0.416-0.126-0.833-0.199-1.252c-0.034-0.197-0.074-0.395-0.11-0.592c-0.075-0.402-0.151-0.804-0.236-1.208
				c-0.044-0.212-0.093-0.424-0.14-0.636c-0.087-0.392-0.176-0.785-0.272-1.18c-0.054-0.223-0.112-0.447-0.17-0.67
				c-0.099-0.386-0.201-0.773-0.309-1.161c-0.065-0.232-0.132-0.465-0.2-0.698c-0.111-0.382-0.225-0.764-0.344-1.147
				c-0.075-0.24-0.151-0.481-0.229-0.722c-0.123-0.38-0.25-0.76-0.381-1.141c-0.084-0.245-0.17-0.491-0.257-0.737
				c-0.135-0.38-0.275-0.76-0.419-1.141c-0.094-0.25-0.188-0.5-0.285-0.75c-0.147-0.378-0.299-0.756-0.453-1.135
				c-0.105-0.257-0.209-0.515-0.318-0.773c-0.157-0.375-0.321-0.751-0.486-1.128c-0.115-0.262-0.229-0.525-0.347-0.788
				c-0.169-0.374-0.344-0.749-0.52-1.124c-0.126-0.268-0.249-0.536-0.379-0.805c-0.037-0.077-0.071-0.153-0.108-0.23
				C153.778,34.028,203.582,17.067,256,17.067c131.957,0,238.933,106.976,238.933,238.933S387.957,494.933,256,494.933z"/>
		</g>
	</g>
</g>
<g>
</g>
<g>
</g>
<g>
</g>
<g>
</g>
<g>
</g>
<g>
</g>
<g>
</g>
<g>
</g>
<g>
</g>
<g>
</g>
<g>
</g>
<g>
</g>
<g>
</g>
<g>
</g>
<g>
</g>
</svg>
